<?xml version="1.0" standalone="no"?>
<!DOCTYPE svg PUBLIC "-//W3C//DTD SVG 20010904//EN"
 "http://www.w3.org/TR/2001/REC-SVG-20010904/DTD/svg10.dtd">
<svg version="1.0" xmlns="http://www.w3.org/2000/svg"
 width="848.000000pt" height="848.000000pt" viewBox="0 0 848.000000 848.000000"
 preserveAspectRatio="xMidYMid meet">
<metadata>
Created by potrace 1.14, written by Peter Selinger 2001-2017
</metadata>
<g transform="translate(0.000000,848.000000) scale(0.100000,-0.100000)"
fill="#000000" stroke="none">
<path d="M3142 5874 c-39 -7 -82 -16 -95 -20 -12 -4 -27 -9 -33 -10 -24 -4
-130 -57 -173 -87 -55 -37 -122 -105 -163 -165 -24 -35 -79 -141 -84 -162 0
-3 -3 -12 -7 -20 -11 -28 -28 -89 -33 -117 -29 -155 -30 -221 -29 -1093 1
-492 5 -906 8 -919 4 -14 9 -46 12 -73 3 -26 17 -90 30 -140 14 -51 27 -100
29 -108 2 -8 11 -28 20 -45 9 -16 16 -34 16 -38 0 -22 81 -130 149 -198 42
-42 106 -107 142 -145 47 -48 91 -82 148 -112 44 -24 81 -41 81 -37 0 3 8 1
18 -4 9 -5 31 -11 47 -14 17 -3 41 -8 55 -12 25 -6 197 -7 235 -2 88 13 255
78 255 99 0 4 6 8 13 8 7 0 34 22 60 48 40 41 55 49 87 50 30 1 42 -3 50 -18
6 -11 8 -20 5 -20 -3 0 1 -10 9 -22 9 -12 16 -30 16 -40 0 -10 13 -32 28 -50
l29 -31 127 0 c69 0 129 3 132 6 4 3 6 437 6 963 l-1 956 -23 17 c-14 10 -45
17 -83 17 -33 1 -63 2 -67 3 -5 0 -8 30 -8 65 0 36 -4 68 -10 71 -8 5 -169 7
-308 4 -29 -1 -55 1 -59 4 -3 4 -13 2 -22 -3 -10 -5 -23 -5 -31 0 -8 5 -21 5
-30 0 -9 -5 -22 -5 -30 0 -7 4 -23 5 -34 1 -12 -4 -34 -5 -51 -1 -16 3 -47 3
-67 -1 -20 -3 -42 -3 -49 2 -7 4 -21 3 -31 -2 -11 -6 -18 -6 -18 0 0 5 -9 7
-21 4 -12 -3 -24 -1 -28 5 -8 13 -5 396 4 445 15 85 61 145 123 160 22 5 22 3
23 -91 1 -54 1 -134 0 -179 -1 -93 -11 -84 94 -87 l50 -1 0 -69 c0 -56 4 -72
22 -90 21 -21 27 -21 342 -21 l322 0 -6 150 c-6 151 -7 168 -20 260 -9 67 -22
140 -30 175 -1 3 -5 19 -9 35 -4 17 -10 37 -13 45 -3 8 -7 22 -9 30 -6 30 -49
117 -88 175 -38 57 -83 105 -172 185 -21 20 -55 54 -76 77 -57 65 -176 138
-258 159 -8 2 -42 11 -75 19 -81 22 -345 27 -443 9z m344 -2033 c1 -53 5 -76
19 -91 9 -10 15 -26 12 -34 -3 -8 -3 -17 0 -20 4 -3 5 -39 4 -78 -2 -78 -2
-77 -1 -140 1 -65 -7 -181 -15 -203 -22 -64 -49 -104 -86 -123 -39 -21 -49
-18 -57 18 -2 8 -4 176 -5 374 -2 404 -9 372 80 370 l48 -1 1 -72z"/>
<path d="M4287 5854 c-2 -2 12 -63 30 -136 18 -72 35 -143 38 -157 2 -14 20
-89 39 -166 18 -77 57 -239 85 -360 29 -121 56 -236 61 -255 5 -19 19 -78 31
-130 11 -52 25 -106 29 -120 5 -14 11 -38 14 -55 5 -27 14 -65 29 -130 3 -11
10 -40 17 -64 6 -24 13 -53 14 -65 1 -11 5 -28 9 -36 3 -8 13 -49 22 -90 9
-41 19 -84 22 -95 2 -11 6 -30 8 -42 2 -12 6 -26 9 -31 3 -5 8 -24 11 -43 3
-19 17 -79 31 -133 24 -99 24 -100 24 -644 l0 -544 30 4 c17 3 30 2 30 -1 0
-4 18 -5 40 -3 44 5 42 9 42 -83 -1 -35 5 -57 19 -74 l20 -24 292 1 c161 0
301 1 312 1 20 1 20 8 19 549 0 412 3 557 12 590 7 23 10 42 7 42 -3 0 0 7 7
15 7 8 10 15 7 15 -3 0 -1 16 5 36 5 20 11 44 13 53 2 9 13 57 25 106 29 121
30 126 36 155 3 14 7 32 9 40 2 8 4 15 5 15 1 0 3 9 5 20 1 11 10 49 19 85 9
36 19 74 21 85 10 42 15 66 19 83 4 15 42 174 52 212 2 8 12 53 23 100 10 47
26 112 35 145 8 33 17 71 20 85 3 14 12 52 20 86 8 34 17 72 20 85 3 13 10 44
17 69 6 25 13 53 15 63 2 9 6 26 9 37 12 48 16 67 21 90 3 14 11 50 19 81 8
30 17 66 19 80 2 13 5 24 6 24 1 0 3 8 5 17 2 9 13 61 26 115 29 124 28 114 7
138 -15 18 -29 21 -106 20 l-89 -1 13 51 c8 27 14 60 14 72 l0 21 -320 0 -320
0 -9 -36 c-10 -43 -21 -102 -27 -152 -4 -31 -16 -106 -30 -180 -2 -14 -7 -41
-9 -60 -3 -19 -8 -44 -10 -56 -3 -11 -7 -42 -10 -67 -3 -26 -10 -57 -15 -70
-8 -21 -9 -21 -11 6 -1 15 -2 30 -3 35 -5 18 -17 90 -21 121 -2 18 -7 40 -9
50 -3 9 -8 36 -11 61 -2 25 -7 55 -9 66 -2 12 -7 39 -10 60 -9 58 -42 82 -105
79 -60 -3 -65 2 -75 87 l-7 56 -324 0 c-178 0 -326 -2 -328 -4z"/>
</g>
</svg>
